<?xml version="1.0" standalone="no"?>
<!DOCTYPE svg PUBLIC "-//W3C//DTD SVG 20010904//EN"
 "http://www.w3.org/TR/2001/REC-SVG-20010904/DTD/svg10.dtd">
<svg version="1.0" xmlns="http://www.w3.org/2000/svg"
 width="192.000000pt" height="192.000000pt" viewBox="0 0 192.000000 192.000000"
 preserveAspectRatio="xMidYMid meet">
<metadata>
Created by potrace 1.16, written by Peter Selinger 2001-2019
</metadata>
<g transform="translate(0.000000,192.000000) scale(0.100000,-0.100000)"
fill="#000000" stroke="none">
<path d="M650 1815 c-28 -25 -56 -45 -64 -45 -33 0 -58 -51 -143 -290 -20 -56
-41 -79 -78 -86 -55 -10 -64 -25 -123 -199 -22 -66 -57 -165 -77 -220 -39
-108 -40 -148 -5 -180 13 -12 20 -31 20 -54 0 -20 9 -53 20 -74 11 -20 20 -54
20 -75 0 -23 9 -51 25 -74 17 -25 25 -51 25 -78 0 -75 -30 -62 758 -336 87
-30 116 -27 161 21 19 21 46 37 67 41 22 4 43 17 57 35 13 18 37 34 61 40 22
6 53 25 70 44 17 18 49 42 72 53 37 19 43 28 73 109 60 161 56 155 142 211 63
42 84 62 99 95 38 82 21 123 -71 166 -38 18 -55 33 -57 48 -2 12 18 81 43 153
62 172 65 197 31 246 -15 22 -26 53 -26 72 0 62 -46 98 -149 116 -29 5 -38 1
-70 -31 -20 -20 -50 -40 -68 -45 -18 -5 -45 -19 -60 -32 -15 -13 -43 -27 -62
-31 -18 -4 -51 -23 -73 -43 l-39 -36 -100 34 c-123 41 -139 52 -139 93 0 18
-9 50 -20 72 -11 22 -20 49 -20 61 0 12 -12 39 -26 60 -17 25 -27 53 -28 80
-2 53 -24 78 -93 104 -78 29 -95 26 -153 -25z m77 -116 c32 -12 68 -26 80 -30
22 -8 22 -10 8 -50 -8 -22 -13 -44 -10 -48 2 -4 22 -13 44 -21 l39 -13 -19
-55 c-10 -30 -19 -56 -19 -58 0 -1 16 -8 35 -14 40 -13 40 -15 20 -63 -8 -20
-15 -43 -15 -50 0 -9 57 -34 163 -71 89 -31 167 -56 174 -56 6 0 19 23 28 51
15 44 20 50 39 45 73 -21 72 -22 91 34 15 45 20 51 39 46 55 -16 76 -18 76 -7
0 6 6 27 14 45 l14 33 76 -26 c42 -14 76 -30 76 -35 0 -9 -131 -387 -137 -395
-2 -3 -287 95 -743 256 -85 31 -183 65 -218 76 -44 15 -62 26 -60 37 7 37 134
390 140 390 4 0 33 -10 65 -21z m-341 -533 c-3 -13 -9 -31 -12 -40 -5 -12 2
-19 24 -27 l30 -10 -15 -36 c-16 -39 -8 -53 31 -53 12 0 16 -5 12 -16 -14 -37
-17 -62 -7 -68 24 -15 404 -145 412 -141 4 3 10 19 14 35 6 28 9 30 40 24 31
-5 34 -4 45 30 10 32 13 34 36 25 14 -5 29 -7 34 -4 5 3 18 34 30 70 12 36 25
65 28 65 4 0 17 -3 29 -6 18 -5 20 -10 12 -31 -14 -39 -11 -53 17 -63 18 -7
24 -15 20 -26 -19 -50 -18 -61 8 -68 30 -8 31 -11 10 -72 -8 -25 -14 -48 -12
-50 2 -2 39 -16 82 -31 73 -26 79 -26 91 -10 11 16 17 15 88 -11 42 -15 79
-31 83 -34 3 -4 -8 -49 -26 -100 -54 -155 -43 -140 -91 -123 -47 17 -54 15
-63 -19 -3 -14 -10 -36 -16 -50 -9 -25 -10 -25 -51 -11 -47 17 -54 15 -63 -19
-3 -14 -10 -36 -16 -50 l-9 -25 -173 60 c-95 34 -249 88 -343 121 -93 32 -197
69 -230 80 -33 12 -70 24 -82 29 l-21 8 19 52 c11 29 16 55 12 59 -4 4 -25 13
-45 19 l-37 12 19 50 c26 64 25 66 -10 74 -16 4 -32 10 -35 15 -3 4 20 79 51
166 30 88 61 174 67 192 13 37 22 43 13 8z"/>
<path d="M586 680 c-21 -61 -36 -113 -33 -116 6 -6 561 -202 584 -206 11 -2
26 28 54 107 21 61 39 111 39 112 0 5 -73 33 -85 33 -8 0 -21 -22 -30 -50 -9
-27 -22 -50 -29 -50 -7 0 -46 12 -88 28 l-75 27 12 35 c28 81 29 77 -9 90 -41
13 -52 9 -60 -24 -3 -14 -10 -36 -15 -49 l-10 -25 -82 30 c-46 16 -85 30 -86
32 -2 2 4 22 12 46 8 23 15 48 15 55 0 11 -48 35 -70 35 -3 0 -23 -50 -44
-110z"/>
</g>
</svg>
